<svg width="81" height="81" viewBox="0 0 81 81" fill="none" xmlns="http://www.w3.org/2000/svg">
<circle cx="40.5" cy="40.5" r="40.5" fill="#C0C3FA"/>
<path d="M40.5 26.4158L36.147 26.7093C33.3323 23.3824 25.4446 15 17.5896 15C17.5896 15 11.142 24.6545 17.4587 37.538C15.6586 40.2452 14.5458 41.6477 14.3167 44.8767L8 45.8226L8.68731 49.019L14.4476 48.171L14.9058 50.4867L9.76737 53.5527L11.3056 56.4556L16.0514 53.5527C19.8152 61.5111 29.3394 65.5556 40.5 65.5556C51.6606 65.5556 61.1848 61.5111 64.9486 53.5527L69.6944 56.4556L71.2326 53.5527L66.0942 50.4867L66.5524 48.171L72.3127 49.019L73 45.8226L66.6833 44.8767C66.4542 41.6477 65.3414 40.2452 63.5413 37.538C69.858 24.6545 63.4104 15 63.4104 15C55.5554 15 47.6677 23.3824 44.853 26.7093L40.5 26.4158ZM30.6813 36.2007C31.5493 36.2007 32.3818 36.5444 32.9956 37.156C33.6094 37.7677 33.9542 38.5973 33.9542 39.4624C33.9542 40.3274 33.6094 41.157 32.9956 41.7687C32.3818 42.3804 31.5493 42.724 30.6813 42.724C29.8132 42.724 28.9808 42.3804 28.367 41.7687C27.7532 41.157 27.4084 40.3274 27.4084 39.4624C27.4084 38.5973 27.7532 37.7677 28.367 37.156C28.9808 36.5444 29.8132 36.2007 30.6813 36.2007ZM50.3187 36.2007C51.1868 36.2007 52.0192 36.5444 52.633 37.156C53.2468 37.7677 53.5916 38.5973 53.5916 39.4624C53.5916 40.3274 53.2468 41.157 52.633 41.7687C52.0192 42.3804 51.1868 42.724 50.3187 42.724C49.4507 42.724 48.6182 42.3804 48.0044 41.7687C47.3906 41.157 47.0458 40.3274 47.0458 39.4624C47.0458 38.5973 47.3906 37.7677 48.0044 37.156C48.6182 36.5444 49.4507 36.2007 50.3187 36.2007ZM37.2271 45.9857H43.7729L41.4819 50.5194C42.1365 52.6068 43.9693 54.1398 46.2276 54.1398C47.5296 54.1398 48.7784 53.6243 49.699 52.7068C50.6197 51.7893 51.137 50.5449 51.137 49.2473H52.7734C52.7734 50.9774 52.0838 52.6366 50.8562 53.86C49.6286 55.0833 47.9637 55.7706 46.2276 55.7706C43.7729 55.7706 41.6455 54.4333 40.5 52.509C39.3545 54.4333 37.2271 55.7706 34.7724 55.7706C33.0363 55.7706 31.3714 55.0833 30.1438 53.86C28.9162 52.6366 28.2266 50.9774 28.2266 49.2473H29.863C29.863 50.5449 30.3803 51.7893 31.301 52.7068C32.2216 53.6243 33.4704 54.1398 34.7724 54.1398C37.0307 54.1398 38.8635 52.6068 39.5181 50.5194L37.2271 45.9857Z" fill="white"/>
</svg>
