<svg width="81" height="81" viewBox="0 0 81 81" fill="none" xmlns="http://www.w3.org/2000/svg">
<circle cx="40.5" cy="40.5" r="40.5" fill="#C0C3FA"/>
<path d="M58.2273 17C53.175 17 50.1023 17.9694 48.3295 18.7919C46.0545 17.6756 43.4545 17 40.5 17C37.5455 17 34.9455 17.6756 32.6705 18.7919C30.8977 17.9694 27.825 17 22.7727 17C13.9091 17 8 40.5 8 46.375C8 48.8131 11.9 51.0456 17.2773 51.9562C19.1682 58.5362 28.0909 63.5594 39.0227 64V51.4275C37.2795 50.3406 34.5909 48.3725 34.5909 46.375C34.5909 43.4375 40.5 43.4375 40.5 43.4375C40.5 43.4375 46.4091 43.4375 46.4091 46.375C46.4091 48.3725 43.7205 50.3406 41.9773 51.4275V64C52.9091 63.5594 61.8318 58.5362 63.7227 51.9562C69.1 51.0456 73 48.8131 73 46.375C73 40.5 67.0909 17 58.2273 17ZM17.3068 45.9931C15.8295 45.6406 14.6773 45.2294 13.9091 44.9062C14.6477 36.7694 20.4091 24.05 22.9205 22.875C24.5159 22.875 25.7273 23.0513 26.8205 23.1981C20.6159 29.9838 18.1636 40.6175 17.3068 45.9931ZM31.6364 40.5C30.8528 40.5 30.1013 40.1905 29.5472 39.6396C28.9931 39.0887 28.6818 38.3416 28.6818 37.5625C28.6818 35.9762 30.0114 34.625 31.6364 34.625C32.42 34.625 33.1715 34.9345 33.7255 35.4854C34.2796 36.0363 34.5909 36.7834 34.5909 37.5625C34.5909 39.2075 33.2614 40.5 31.6364 40.5ZM49.3636 40.5C48.58 40.5 47.8285 40.1905 47.2745 39.6396C46.7204 39.0887 46.4091 38.3416 46.4091 37.5625C46.4091 35.9762 47.7386 34.625 49.3636 34.625C50.1472 34.625 50.8987 34.9345 51.4528 35.4854C52.0069 36.0363 52.3182 36.7834 52.3182 37.5625C52.3182 39.2075 50.9886 40.5 49.3636 40.5ZM63.6932 45.9931C62.8364 40.6175 60.3841 29.9838 54.1795 23.1981C55.2727 23.0513 56.4841 22.875 58.0795 22.875C60.5909 24.05 66.3523 36.7694 67.0909 44.9062C66.3523 45.2294 65.2 45.6406 63.6932 45.9931Z" fill="white"/>
</svg>
