<svg width="238" height="34" viewBox="0 0 238 34" fill="none" xmlns="http://www.w3.org/2000/svg">
<path d="M46.96 15.12C46.48 15.12 46.1 14.98 45.82 14.7C45.54 14.42 45.4 14.04 45.4 13.56V2.35997C45.4 1.8933 45.5267 1.5333 45.78 1.27997C46.0333 1.02664 46.3933 0.899971 46.86 0.899971H51.88C53.4133 0.899971 54.6067 1.28664 55.46 2.05997C56.3133 2.8333 56.74 3.9133 56.74 5.29997C56.74 6.68664 56.3133 7.76664 55.46 8.53997C54.6067 9.3133 53.4133 9.69997 51.88 9.69997H48.52V13.56C48.52 14.04 48.38 14.42 48.1 14.7C47.82 14.98 47.44 15.12 46.96 15.12ZM51.48 7.33997C53.04 7.33997 53.82 6.66664 53.82 5.31997C53.82 3.95997 53.04 3.27997 51.48 3.27997H48.52V7.33997H51.48Z" fill="white"/>
<path d="M70.3955 13.1C70.5021 13.34 70.5555 13.5533 70.5555 13.74C70.5555 14.1133 70.4021 14.4333 70.0955 14.7C69.8021 14.9533 69.4621 15.08 69.0755 15.08C68.8221 15.08 68.5821 15.0133 68.3555 14.88C68.1288 14.7333 67.9555 14.52 67.8355 14.24L66.7755 11.88H59.9955L58.9355 14.24C58.8155 14.52 58.6421 14.7333 58.4155 14.88C58.2021 15.0133 57.9621 15.08 57.6955 15.08C57.3088 15.08 56.9621 14.9533 56.6555 14.7C56.3488 14.4333 56.1955 14.1133 56.1955 13.74C56.1955 13.5533 56.2488 13.34 56.3555 13.1L61.7555 1.75997C61.9021 1.43997 62.1221 1.19997 62.4155 1.03997C62.7088 0.866638 63.0221 0.779971 63.3555 0.779971C63.7021 0.779971 64.0221 0.866638 64.3155 1.03997C64.6088 1.2133 64.8355 1.4533 64.9955 1.75997L70.3955 13.1ZM61.0555 9.51997H65.7155L63.3955 4.31997L61.0555 9.51997Z" fill="white"/>
<path d="M88.3488 1.73997C88.4688 1.41997 88.6487 1.17997 88.8887 1.01997C89.1421 0.846638 89.4221 0.759971 89.7288 0.759971C90.1154 0.759971 90.4421 0.879971 90.7087 1.11997C90.9887 1.35997 91.1288 1.68664 91.1288 2.09997C91.1288 2.29997 91.0888 2.51997 91.0088 2.75997L86.8487 14.14C86.7287 14.46 86.5154 14.7133 86.2087 14.9C85.9154 15.0733 85.5888 15.16 85.2288 15.16C84.8688 15.16 84.5421 15.0733 84.2487 14.9C83.9554 14.7133 83.7488 14.46 83.6288 14.14L80.6488 5.71997L77.5888 14.14C77.4688 14.46 77.2621 14.7133 76.9688 14.9C76.6754 15.0733 76.3487 15.16 75.9887 15.16C75.6421 15.16 75.3154 15.0733 75.0088 14.9C74.7154 14.7133 74.5087 14.46 74.3887 14.14L70.2288 2.75997C70.1488 2.5333 70.1087 2.31997 70.1087 2.11997C70.1087 1.70664 70.2554 1.37997 70.5488 1.13997C70.8421 0.886638 71.1888 0.759971 71.5888 0.759971C71.9088 0.759971 72.1954 0.846638 72.4488 1.01997C72.7154 1.17997 72.9087 1.41997 73.0287 1.73997L76.1087 10.6L79.3088 1.77997C79.4288 1.45997 79.6154 1.2133 79.8688 1.03997C80.1354 0.866638 80.4154 0.779971 80.7087 0.779971C81.0154 0.779971 81.2954 0.866638 81.5488 1.03997C81.8021 1.2133 81.9887 1.46664 82.1087 1.79997L85.1687 10.76L88.3488 1.73997Z" fill="white"/>
<path d="M97.9605 15.18C96.9071 15.18 95.9271 15.06 95.0205 14.82C94.1138 14.5666 93.3738 14.2133 92.8005 13.76C92.6005 13.6133 92.4538 13.46 92.3605 13.3C92.2805 13.1266 92.2405 12.9133 92.2405 12.66C92.2405 12.3266 92.3405 12.0333 92.5405 11.78C92.7538 11.5266 92.9938 11.4 93.2605 11.4C93.4071 11.4 93.5471 11.4266 93.6805 11.48C93.8271 11.52 94.0005 11.6 94.2005 11.72C94.7738 12.08 95.3538 12.3466 95.9405 12.52C96.5271 12.68 97.1738 12.76 97.8805 12.76C98.7605 12.76 99.4338 12.6133 99.9005 12.32C100.367 12.0266 100.6 11.6066 100.6 11.06C100.6 10.6466 100.38 10.3133 99.9405 10.06C99.5138 9.80664 98.7471 9.56664 97.6405 9.33997C96.4005 9.08664 95.4071 8.77997 94.6605 8.41997C93.9271 8.05997 93.3871 7.6133 93.0405 7.07997C92.7071 6.54664 92.5405 5.89997 92.5405 5.13997C92.5405 4.29997 92.7805 3.54664 93.2605 2.87997C93.7538 2.19997 94.4271 1.6733 95.2805 1.29997C96.1471 0.913304 97.1205 0.719971 98.2005 0.719971C100.094 0.719971 101.654 1.1933 102.88 2.13997C103.08 2.29997 103.22 2.46664 103.3 2.63997C103.394 2.79997 103.44 2.99997 103.44 3.23997C103.44 3.5733 103.334 3.86664 103.12 4.11997C102.92 4.3733 102.687 4.49997 102.42 4.49997C102.274 4.49997 102.134 4.47997 102 4.43997C101.88 4.39997 101.707 4.3133 101.48 4.17997C100.934 3.8333 100.427 3.5733 99.9605 3.39997C99.5071 3.22664 98.9271 3.13997 98.2205 3.13997C97.4071 3.13997 96.7671 3.29997 96.3005 3.61997C95.8338 3.92664 95.6005 4.35331 95.6005 4.89997C95.6005 5.21997 95.6871 5.48664 95.8605 5.69997C96.0471 5.89997 96.3471 6.07997 96.7605 6.23997C97.1871 6.39997 97.7871 6.56664 98.5605 6.73997C100.374 7.13997 101.674 7.6533 102.46 8.27997C103.26 8.90664 103.66 9.76664 103.66 10.86C103.66 11.7133 103.42 12.4666 102.94 13.12C102.474 13.7733 101.807 14.28 100.94 14.64C100.087 15 99.0938 15.18 97.9605 15.18Z" fill="white"/>
<path d="M123.474 13.08C123.754 13.3466 123.894 13.64 123.894 13.96C123.894 14.28 123.767 14.56 123.514 14.8C123.26 15.04 122.967 15.16 122.634 15.16C122.3 15.16 122.007 15.04 121.754 14.8L120.194 13.36C119.554 13.9333 118.847 14.38 118.074 14.7C117.3 15.0066 116.507 15.16 115.694 15.16C114.734 15.16 113.874 14.9933 113.114 14.66C112.354 14.3266 111.76 13.8666 111.334 13.28C110.92 12.68 110.714 11.9933 110.714 11.22C110.714 10.3666 110.94 9.61997 111.394 8.97997C111.847 8.32664 112.56 7.72664 113.534 7.17997C113.054 6.6733 112.7 6.17997 112.474 5.69997C112.247 5.21997 112.134 4.72664 112.134 4.21997C112.134 3.53997 112.307 2.93997 112.654 2.41997C113 1.88664 113.48 1.47997 114.094 1.19997C114.72 0.906638 115.434 0.759971 116.234 0.759971C117.367 0.759971 118.267 1.0533 118.934 1.63997C119.6 2.2133 119.934 2.98664 119.934 3.95997C119.934 4.67997 119.734 5.32664 119.334 5.89997C118.934 6.4733 118.314 7.00664 117.474 7.49997L119.914 9.77997C120.274 9.0333 120.5 8.22664 120.594 7.35997C120.634 6.9733 120.774 6.67997 121.014 6.47997C121.267 6.26664 121.554 6.15997 121.874 6.15997C122.234 6.15997 122.534 6.27997 122.774 6.51997C123.014 6.75997 123.107 7.08664 123.054 7.49997C122.92 8.92664 122.48 10.2533 121.734 11.48L123.474 13.08ZM116.274 2.75997C115.847 2.75997 115.5 2.8933 115.234 3.15997C114.967 3.4133 114.834 3.75997 114.834 4.19997C114.834 4.47997 114.907 4.7533 115.054 5.01997C115.214 5.28664 115.487 5.6133 115.874 5.99997C116.474 5.67997 116.9 5.36664 117.154 5.05997C117.407 4.7533 117.534 4.41997 117.534 4.05997C117.534 3.6733 117.414 3.35997 117.174 3.11997C116.947 2.87997 116.647 2.75997 116.274 2.75997ZM115.834 12.86C116.78 12.86 117.667 12.5 118.494 11.78L115.154 8.67997C114.154 9.2933 113.654 10.0733 113.654 11.02C113.654 11.5933 113.847 12.0466 114.234 12.38C114.634 12.7 115.167 12.86 115.834 12.86Z" fill="white"/>
<path d="M148.388 1.73997C148.508 1.41997 148.688 1.17997 148.928 1.01997C149.181 0.846638 149.461 0.759971 149.768 0.759971C150.154 0.759971 150.481 0.879971 150.748 1.11997C151.028 1.35997 151.168 1.68664 151.168 2.09997C151.168 2.29997 151.128 2.51997 151.048 2.75997L146.888 14.14C146.768 14.46 146.554 14.7133 146.248 14.9C145.954 15.0733 145.628 15.16 145.268 15.16C144.908 15.16 144.581 15.0733 144.288 14.9C143.994 14.7133 143.788 14.46 143.668 14.14L140.688 5.71997L137.628 14.14C137.508 14.46 137.301 14.7133 137.008 14.9C136.714 15.0733 136.388 15.16 136.028 15.16C135.681 15.16 135.354 15.0733 135.048 14.9C134.754 14.7133 134.548 14.46 134.428 14.14L130.268 2.75997C130.188 2.5333 130.148 2.31997 130.148 2.11997C130.148 1.70664 130.294 1.37997 130.588 1.13997C130.881 0.886638 131.228 0.759971 131.628 0.759971C131.948 0.759971 132.234 0.846638 132.488 1.01997C132.754 1.17997 132.948 1.41997 133.068 1.73997L136.148 10.6L139.348 1.77997C139.468 1.45997 139.654 1.2133 139.908 1.03997C140.174 0.866638 140.454 0.779971 140.748 0.779971C141.054 0.779971 141.334 0.866638 141.588 1.03997C141.841 1.2133 142.028 1.46664 142.148 1.79997L145.208 10.76L148.388 1.73997Z" fill="white"/>
<path d="M164.292 0.799971C164.759 0.799971 165.133 0.939971 165.413 1.21997C165.693 1.49997 165.833 1.8733 165.833 2.33997V13.56C165.833 14.0266 165.693 14.4066 165.413 14.7C165.133 14.98 164.759 15.12 164.292 15.12C163.826 15.12 163.453 14.98 163.173 14.7C162.906 14.42 162.773 14.04 162.773 13.56V9.07997H156.273V13.56C156.273 14.0266 156.132 14.4066 155.852 14.7C155.572 14.98 155.206 15.12 154.753 15.12C154.286 15.12 153.913 14.98 153.633 14.7C153.353 14.42 153.212 14.04 153.212 13.56V2.33997C153.212 1.8733 153.353 1.49997 153.633 1.21997C153.913 0.939971 154.286 0.799971 154.753 0.799971C155.219 0.799971 155.586 0.939971 155.852 1.21997C156.132 1.49997 156.273 1.8733 156.273 2.33997V6.59997H162.773V2.33997C162.773 1.8733 162.906 1.49997 163.173 1.21997C163.453 0.939971 163.826 0.799971 164.292 0.799971Z" fill="white"/>
<path d="M170.202 15.12C169.722 15.12 169.342 14.98 169.062 14.7C168.782 14.42 168.642 14.04 168.642 13.56V2.33997C168.642 1.8733 168.782 1.49997 169.062 1.21997C169.342 0.939971 169.722 0.799971 170.202 0.799971C170.682 0.799971 171.062 0.939971 171.342 1.21997C171.622 1.49997 171.762 1.8733 171.762 2.33997V13.56C171.762 14.04 171.622 14.42 171.342 14.7C171.062 14.98 170.682 15.12 170.202 15.12Z" fill="white"/>
<path d="M179.64 15.18C178.587 15.18 177.607 15.06 176.7 14.82C175.793 14.5666 175.053 14.2133 174.48 13.76C174.28 13.6133 174.133 13.46 174.04 13.3C173.96 13.1266 173.92 12.9133 173.92 12.66C173.92 12.3266 174.02 12.0333 174.22 11.78C174.433 11.5266 174.673 11.4 174.94 11.4C175.087 11.4 175.227 11.4266 175.36 11.48C175.507 11.52 175.68 11.6 175.88 11.72C176.453 12.08 177.033 12.3466 177.62 12.52C178.207 12.68 178.853 12.76 179.56 12.76C180.44 12.76 181.113 12.6133 181.58 12.32C182.047 12.0266 182.28 11.6066 182.28 11.06C182.28 10.6466 182.06 10.3133 181.62 10.06C181.193 9.80664 180.427 9.56664 179.32 9.33997C178.08 9.08664 177.087 8.77997 176.34 8.41997C175.607 8.05997 175.067 7.6133 174.72 7.07997C174.387 6.54664 174.22 5.89997 174.22 5.13997C174.22 4.29997 174.46 3.54664 174.94 2.87997C175.433 2.19997 176.107 1.6733 176.96 1.29997C177.827 0.913304 178.8 0.719971 179.88 0.719971C181.773 0.719971 183.333 1.1933 184.56 2.13997C184.76 2.29997 184.9 2.46664 184.98 2.63997C185.073 2.79997 185.12 2.99997 185.12 3.23997C185.12 3.5733 185.013 3.86664 184.8 4.11997C184.6 4.3733 184.367 4.49997 184.1 4.49997C183.953 4.49997 183.813 4.47997 183.68 4.43997C183.56 4.39997 183.387 4.3133 183.16 4.17997C182.613 3.8333 182.107 3.5733 181.64 3.39997C181.187 3.22664 180.607 3.13997 179.9 3.13997C179.087 3.13997 178.447 3.29997 177.98 3.61997C177.513 3.92664 177.28 4.35331 177.28 4.89997C177.28 5.21997 177.367 5.48664 177.54 5.69997C177.727 5.89997 178.027 6.07997 178.44 6.23997C178.867 6.39997 179.467 6.56664 180.24 6.73997C182.053 7.13997 183.353 7.6533 184.14 8.27997C184.94 8.90664 185.34 9.76664 185.34 10.86C185.34 11.7133 185.1 12.4666 184.62 13.12C184.153 13.7733 183.487 14.28 182.62 14.64C181.767 15 180.773 15.18 179.64 15.18Z" fill="white"/>
<path d="M199.008 12.66C199.314 12.9666 199.467 13.3 199.467 13.66C199.467 14.0333 199.321 14.36 199.027 14.64C198.747 14.92 198.421 15.06 198.048 15.06C197.621 15.06 197.241 14.8866 196.908 14.54L190.708 8.47997V13.56C190.708 14.04 190.568 14.42 190.288 14.7C190.008 14.98 189.628 15.12 189.148 15.12C188.668 15.12 188.288 14.98 188.008 14.7C187.728 14.42 187.587 14.04 187.587 13.56V2.33997C187.587 1.8733 187.728 1.49997 188.008 1.21997C188.288 0.939971 188.668 0.799971 189.148 0.799971C189.628 0.799971 190.008 0.939971 190.288 1.21997C190.568 1.49997 190.708 1.8733 190.708 2.33997V7.11997L196.747 1.25997C197.041 0.966637 197.374 0.819971 197.747 0.819971C198.121 0.819971 198.447 0.959971 198.727 1.23997C199.007 1.50664 199.148 1.82664 199.148 2.19997C199.148 2.58664 198.987 2.9333 198.667 3.23997L193.908 7.69997L199.008 12.66Z" fill="white"/>
<path d="M202.602 15C202.136 15 201.776 14.8733 201.522 14.62C201.269 14.3666 201.142 14.0066 201.142 13.54V2.35997C201.142 1.8933 201.269 1.5333 201.522 1.27997C201.776 1.02664 202.136 0.899971 202.602 0.899971H209.682C210.669 0.899971 211.162 1.29997 211.162 2.09997C211.162 2.9133 210.669 3.31997 209.682 3.31997H204.182V6.61997H209.282C210.269 6.61997 210.762 7.02664 210.762 7.83997C210.762 8.63997 210.269 9.03997 209.282 9.03997H204.182V12.58H209.682C210.669 12.58 211.162 12.9866 211.162 13.8C211.162 14.6 210.669 15 209.682 15H202.602Z" fill="white"/>
<path d="M224.558 13.02C224.758 13.3133 224.858 13.6 224.858 13.88C224.858 14.2533 224.704 14.56 224.398 14.8C224.104 15.04 223.758 15.16 223.358 15.16C223.104 15.16 222.858 15.1 222.618 14.98C222.378 14.86 222.178 14.6733 222.018 14.42L219.378 10.5C219.151 10.1533 218.911 9.90664 218.658 9.75997C218.404 9.59997 218.084 9.51997 217.698 9.51997H216.078V13.56C216.078 14.04 215.938 14.42 215.658 14.7C215.391 14.98 215.024 15.12 214.558 15.12C214.078 15.12 213.698 14.98 213.418 14.7C213.138 14.42 212.998 14.04 212.998 13.56V2.35997C212.998 1.8933 213.124 1.5333 213.378 1.27997C213.631 1.02664 213.991 0.899971 214.458 0.899971H219.478C221.131 0.899971 222.378 1.26664 223.218 1.99997C224.071 2.71997 224.498 3.76664 224.498 5.13997C224.498 6.21997 224.198 7.11997 223.598 7.83997C222.998 8.55997 222.151 9.0333 221.058 9.25997C221.458 9.33997 221.811 9.49997 222.118 9.73997C222.438 9.96664 222.744 10.3 223.038 10.74L224.558 13.02ZM219.018 7.15997C219.911 7.15997 220.558 7.00664 220.958 6.69997C221.358 6.37997 221.558 5.88664 221.558 5.21997C221.558 4.53997 221.358 4.04664 220.958 3.73997C220.558 3.4333 219.911 3.27997 219.018 3.27997H216.038V7.15997H219.018Z" fill="white"/>
<path d="M232.003 15.18C230.95 15.18 229.97 15.06 229.063 14.82C228.157 14.5666 227.417 14.2133 226.843 13.76C226.643 13.6133 226.497 13.46 226.403 13.3C226.323 13.1266 226.283 12.9133 226.283 12.66C226.283 12.3266 226.383 12.0333 226.583 11.78C226.797 11.5266 227.037 11.4 227.303 11.4C227.45 11.4 227.59 11.4266 227.723 11.48C227.87 11.52 228.043 11.6 228.243 11.72C228.817 12.08 229.397 12.3466 229.983 12.52C230.57 12.68 231.217 12.76 231.923 12.76C232.803 12.76 233.477 12.6133 233.943 12.32C234.41 12.0266 234.643 11.6066 234.643 11.06C234.643 10.6466 234.423 10.3133 233.983 10.06C233.557 9.80664 232.79 9.56664 231.683 9.33997C230.443 9.08664 229.45 8.77997 228.703 8.41997C227.97 8.05997 227.43 7.6133 227.083 7.07997C226.75 6.54664 226.583 5.89997 226.583 5.13997C226.583 4.29997 226.823 3.54664 227.303 2.87997C227.797 2.19997 228.47 1.6733 229.323 1.29997C230.19 0.913304 231.163 0.719971 232.243 0.719971C234.137 0.719971 235.697 1.1933 236.923 2.13997C237.123 2.29997 237.263 2.46664 237.343 2.63997C237.437 2.79997 237.483 2.99997 237.483 3.23997C237.483 3.5733 237.377 3.86664 237.163 4.11997C236.963 4.3733 236.73 4.49997 236.463 4.49997C236.317 4.49997 236.177 4.47997 236.043 4.43997C235.923 4.39997 235.75 4.3133 235.523 4.17997C234.977 3.8333 234.47 3.5733 234.003 3.39997C233.55 3.22664 232.97 3.13997 232.263 3.13997C231.45 3.13997 230.81 3.29997 230.343 3.61997C229.877 3.92664 229.643 4.35331 229.643 4.89997C229.643 5.21997 229.73 5.48664 229.903 5.69997C230.09 5.89997 230.39 6.07997 230.803 6.23997C231.23 6.39997 231.83 6.56664 232.603 6.73997C234.417 7.13997 235.717 7.6533 236.503 8.27997C237.303 8.90664 237.703 9.76664 237.703 10.86C237.703 11.7133 237.463 12.4666 236.983 13.12C236.517 13.7733 235.85 14.28 234.983 14.64C234.13 15 233.137 15.18 232.003 15.18Z" fill="white"/>
<path d="M50.48 33.18C49.4267 33.18 48.4467 33.06 47.54 32.82C46.6333 32.5666 45.8933 32.2133 45.32 31.76C45.12 31.6133 44.9733 31.46 44.88 31.3C44.8 31.1266 44.76 30.9133 44.76 30.66C44.76 30.3266 44.86 30.0333 45.06 29.78C45.2733 29.5266 45.5133 29.4 45.78 29.4C45.9267 29.4 46.0667 29.4266 46.2 29.48C46.3467 29.52 46.52 29.6 46.72 29.72C47.2933 30.08 47.8733 30.3466 48.46 30.52C49.0467 30.68 49.6933 30.76 50.4 30.76C51.28 30.76 51.9533 30.6133 52.42 30.32C52.8867 30.0266 53.12 29.6066 53.12 29.06C53.12 28.6466 52.9 28.3133 52.46 28.06C52.0333 27.8066 51.2667 27.5666 50.16 27.34C48.92 27.0866 47.9267 26.78 47.18 26.42C46.4467 26.06 45.9067 25.6133 45.56 25.08C45.2267 24.5466 45.06 23.9 45.06 23.14C45.06 22.3 45.3 21.5466 45.78 20.88C46.2733 20.2 46.9467 19.6733 47.8 19.3C48.6667 18.9133 49.64 18.72 50.72 18.72C52.6133 18.72 54.1733 19.1933 55.4 20.14C55.6 20.3 55.74 20.4666 55.82 20.64C55.9133 20.8 55.96 21 55.96 21.24C55.96 21.5733 55.8533 21.8666 55.64 22.12C55.44 22.3733 55.2067 22.5 54.94 22.5C54.7933 22.5 54.6533 22.48 54.52 22.44C54.4 22.4 54.2267 22.3133 54 22.18C53.4533 21.8333 52.9467 21.5733 52.48 21.4C52.0267 21.2266 51.4467 21.14 50.74 21.14C49.9267 21.14 49.2867 21.3 48.82 21.62C48.3533 21.9266 48.12 22.3533 48.12 22.9C48.12 23.22 48.2067 23.4866 48.38 23.7C48.5667 23.9 48.8667 24.08 49.28 24.24C49.7067 24.4 50.3067 24.5666 51.08 24.74C52.8933 25.14 54.1933 25.6533 54.98 26.28C55.78 26.9066 56.18 27.7666 56.18 28.86C56.18 29.7133 55.94 30.4666 55.46 31.12C54.9933 31.7733 54.3267 32.28 53.46 32.64C52.6067 33 51.6133 33.18 50.48 33.18Z" fill="white"/>
<path d="M69.5073 18.8C69.974 18.8 70.3473 18.94 70.6273 19.22C70.9073 19.5 71.0473 19.8733 71.0473 20.34V31.56C71.0473 32.0266 70.9073 32.4066 70.6273 32.7C70.3473 32.98 69.974 33.12 69.5073 33.12C69.0407 33.12 68.6673 32.98 68.3873 32.7C68.1207 32.42 67.9873 32.04 67.9873 31.56V27.08H61.4873V31.56C61.4873 32.0266 61.3473 32.4066 61.0673 32.7C60.7873 32.98 60.4207 33.12 59.9673 33.12C59.5007 33.12 59.1273 32.98 58.8473 32.7C58.5673 32.42 58.4273 32.04 58.4273 31.56V20.34C58.4273 19.8733 58.5673 19.5 58.8473 19.22C59.1273 18.94 59.5007 18.8 59.9673 18.8C60.434 18.8 60.8007 18.94 61.0673 19.22C61.3473 19.5 61.4873 19.8733 61.4873 20.34V24.6H67.9873V20.34C67.9873 19.8733 68.1207 19.5 68.3873 19.22C68.6673 18.94 69.0407 18.8 69.5073 18.8Z" fill="white"/>
<path d="M75.317 33C74.8504 33 74.4904 32.8733 74.237 32.62C73.9837 32.3666 73.857 32.0066 73.857 31.54V20.36C73.857 19.8933 73.9837 19.5333 74.237 19.28C74.4904 19.0266 74.8504 18.9 75.317 18.9H82.397C83.3837 18.9 83.877 19.3 83.877 20.1C83.877 20.9133 83.3837 21.32 82.397 21.32H76.897V24.62H81.997C82.9837 24.62 83.477 25.0266 83.477 25.84C83.477 26.64 82.9837 27.04 81.997 27.04H76.897V30.58H82.397C83.3837 30.58 83.877 30.9866 83.877 31.8C83.877 32.6 83.3837 33 82.397 33H75.317Z" fill="white"/>
<path d="M87.1725 33C86.7058 33 86.3458 32.8733 86.0925 32.62C85.8392 32.3666 85.7125 32.0066 85.7125 31.54V20.34C85.7125 19.8733 85.8525 19.5 86.1325 19.22C86.4125 18.94 86.7925 18.8 87.2725 18.8C87.7525 18.8 88.1325 18.94 88.4125 19.22C88.6925 19.5 88.8325 19.8733 88.8325 20.34V30.46H93.9525C94.9258 30.46 95.4125 30.8866 95.4125 31.74C95.4125 32.58 94.9258 33 93.9525 33H87.1725Z" fill="white"/>
<path d="M99.302 33.1C98.8354 33.1 98.4554 32.96 98.162 32.68C97.882 32.4 97.742 32.0266 97.742 31.56V21.44H94.502C93.5154 21.44 93.022 21.0133 93.022 20.16C93.022 19.32 93.5154 18.9 94.502 18.9H104.102C105.089 18.9 105.582 19.32 105.582 20.16C105.582 21.0133 105.089 21.44 104.102 21.44H100.862V31.56C100.862 32.0266 100.722 32.4 100.442 32.68C100.162 32.96 99.782 33.1 99.302 33.1Z" fill="white"/>
<path d="M108.383 33C107.917 33 107.557 32.8733 107.303 32.62C107.05 32.3666 106.923 32.0066 106.923 31.54V20.36C106.923 19.8933 107.05 19.5333 107.303 19.28C107.557 19.0266 107.917 18.9 108.383 18.9H115.463C116.45 18.9 116.943 19.3 116.943 20.1C116.943 20.9133 116.45 21.32 115.463 21.32H109.963V24.62H115.063C116.05 24.62 116.543 25.0266 116.543 25.84C116.543 26.64 116.05 27.04 115.063 27.04H109.963V30.58H115.463C116.45 30.58 116.943 30.9866 116.943 31.8C116.943 32.6 116.45 33 115.463 33H108.383Z" fill="white"/>
<path d="M130.339 31.02C130.539 31.3133 130.639 31.6 130.639 31.88C130.639 32.2533 130.486 32.56 130.179 32.8C129.886 33.04 129.539 33.16 129.139 33.16C128.886 33.16 128.639 33.1 128.399 32.98C128.159 32.86 127.959 32.6733 127.799 32.42L125.159 28.5C124.932 28.1533 124.692 27.9066 124.439 27.76C124.186 27.6 123.866 27.52 123.479 27.52H121.859V31.56C121.859 32.04 121.719 32.42 121.439 32.7C121.172 32.98 120.806 33.12 120.339 33.12C119.859 33.12 119.479 32.98 119.199 32.7C118.919 32.42 118.779 32.04 118.779 31.56V20.36C118.779 19.8933 118.906 19.5333 119.159 19.28C119.412 19.0266 119.772 18.9 120.239 18.9H125.259C126.912 18.9 128.159 19.2666 128.999 20C129.852 20.72 130.279 21.7666 130.279 23.14C130.279 24.22 129.979 25.12 129.379 25.84C128.779 26.56 127.932 27.0333 126.839 27.26C127.239 27.34 127.592 27.5 127.899 27.74C128.219 27.9666 128.526 28.3 128.819 28.74L130.339 31.02ZM124.799 25.16C125.692 25.16 126.339 25.0066 126.739 24.7C127.139 24.38 127.339 23.8866 127.339 23.22C127.339 22.54 127.139 22.0466 126.739 21.74C126.339 21.4333 125.692 21.28 124.799 21.28H121.819V25.16H124.799Z" fill="white"/>
<path d="M14.9984 7.72024V7.759C14.9989 8.51695 14.8707 9.26931 14.6194 9.98296L14.6342 9.9367C14.3899 10.6321 13.9748 11.2526 13.4283 11.7394L13.4234 11.7431C12.9053 12.2169 12.2163 12.5057 11.4607 12.5057H11.4017H11.4041C10.4074 12.4999 9.45277 12.0962 8.74628 11.3818C7.97447 10.6621 7.37401 9.7733 6.99038 8.78284L6.97439 8.73534C6.60256 7.79928 6.40681 6.80068 6.39729 5.79131V5.74756C6.39729 4.96748 6.53141 4.21866 6.77628 3.5236L6.76151 3.56985C7.00581 2.87444 7.42089 2.25394 7.96739 1.76718L7.97231 1.76343C8.52838 1.25514 9.25482 0.982296 10.0026 1.00086H9.99892C10.996 1.00519 11.9511 1.40906 12.6568 2.12472C13.4209 2.84443 14.0163 3.72916 14.3991 4.71371L14.4151 4.76122C14.7707 5.6363 14.9812 6.65264 14.9922 7.71649V7.72024H14.9984ZM8.42144 17.1561L8.42267 17.2611C8.42414 18.2012 8.13822 19.1185 7.60439 19.8864L7.61424 19.8714C7.37082 20.2277 7.04616 20.5188 6.66797 20.7199C6.28979 20.9211 5.86931 21.0263 5.44243 21.0265L5.32062 21.024H5.32677C4.3182 21.0127 3.34879 20.6257 2.60247 19.9364L2.60617 19.9401C1.81223 19.2493 1.17006 18.3966 0.721307 17.4374C0.272552 16.4782 0.0272247 15.4338 0.00123048 14.3721V14.3621L0 14.2596C0 13.2783 0.302699 12.3682 0.818272 11.6219L0.808428 11.6369C1.06169 11.2607 1.40529 10.9565 1.80668 10.7531C2.20807 10.5496 2.65394 10.4536 3.10205 10.4743H3.0959C4.10447 10.4855 5.07388 10.8725 5.82019 11.5619L5.8165 11.5581C6.61167 12.2531 7.2544 13.1099 7.70312 14.0731C8.15184 15.0363 8.39655 16.0845 8.42144 17.1499V17.1586V17.1561ZM16.0025 16.6286C17.7989 16.7282 19.5195 17.3976 20.9219 18.5425L20.9047 18.5288C22.6214 19.7674 24.1006 21.3147 25.2692 23.0942L25.3086 23.158C26.3619 24.5957 26.9775 26.3154 27.0793 28.1047L27.0805 28.1297L27.083 28.2384C27.083 28.7435 26.9611 29.221 26.7458 29.6398L26.7532 29.6236C26.5466 30.0076 26.2239 30.314 25.8328 30.4974L25.8205 30.5024C25.4624 30.6762 25.0453 30.8124 24.6097 30.8887L24.5802 30.8924C24.126 30.9652 23.6668 31.0012 23.2069 30.9999H23.1147H23.1196C21.8517 30.9147 20.6079 30.6076 19.4429 30.0924L19.5143 30.1211C18.414 29.6337 17.2411 29.3375 16.0443 29.2448L16.0061 29.2423C14.6489 29.3448 13.3914 29.6548 12.2224 30.1411L12.3048 30.1111C11.0859 30.6085 9.79557 30.9015 8.48419 30.9787L8.44974 30.9799C6.09869 30.9816 4.92317 30.0319 4.92317 28.1309C4.97645 26.7989 5.35354 25.501 6.02076 24.3531L5.99984 24.3906C6.71973 23.0151 7.62416 21.7479 8.68722 20.6252L8.6823 20.6302C9.72136 19.5276 10.9096 18.581 12.2113 17.8187L12.2876 17.7774C13.3994 17.0727 14.6733 16.6758 15.9828 16.6261H15.9975L16.0025 16.6286ZM20.5983 12.5069H20.5417C19.8161 12.5077 19.1159 12.2351 18.5766 11.7419L18.5791 11.7444C18.0369 11.2648 17.6237 10.6531 17.3781 9.96671L17.3683 9.9367C17.1242 9.23754 17.0005 8.50085 17.0028 7.759V7.71774V7.72024C17.0139 6.65139 17.2243 5.6363 17.5996 4.70621L17.5799 4.76122C17.9612 3.76004 18.5612 2.85985 19.3346 2.12847L19.3395 2.12472C20.0454 1.41028 20.9998 1.00698 21.9961 1.00211H22.054C22.8095 1.00211 23.4986 1.29214 24.0191 1.76718L24.0166 1.76468C24.5555 2.24348 24.9715 2.85104 25.2176 3.54235L25.2274 3.57235C25.4624 4.22491 25.5978 4.97874 25.5978 5.76381V5.78881V5.78756C25.5871 6.81818 25.3846 7.83745 25.001 8.7916L25.0207 8.73659C24.6391 9.74323 24.0345 10.6471 23.2537 11.3781L23.2488 11.3831C22.5419 12.0957 21.588 12.4979 20.5922 12.5032H20.5909L20.5983 12.5069ZM28.9041 10.4768L29.0173 10.4743C29.9168 10.4743 30.7104 10.9318 31.1854 11.6306L31.1916 11.6394C31.7202 12.4088 32.0025 13.3251 32 14.2634L31.9988 14.3709V14.3659C31.9745 15.4269 31.731 16.471 31.2839 17.4302C30.8368 18.3894 30.1962 19.2425 29.4037 19.9339L29.3938 19.9426C28.6487 20.6294 27.6817 21.015 26.6757 21.0265H26.6732C26.2289 21.0468 25.7867 20.9526 25.3878 20.7526C24.9889 20.5526 24.6463 20.2533 24.3919 19.8826L24.3857 19.8739C23.8361 19.0788 23.553 18.1249 23.5785 17.1536V17.1586C23.6021 16.0938 23.8452 15.0459 24.2922 14.0825C24.7392 13.1191 25.3802 12.2617 26.1736 11.5656L26.1835 11.5569C26.9278 10.8723 27.8927 10.4877 28.8967 10.4755H28.8992L28.9041 10.4768Z" fill="white"/>
</svg>
