<svg width="81" height="81" viewBox="0 0 81 81" fill="none" xmlns="http://www.w3.org/2000/svg">
<circle cx="40.5" cy="40.5" r="40.5" fill="#C0C3FA"/>
<path d="M57.1777 46.9913C56.9453 45.3133 56.4643 43.6814 55.7512 42.152C60.0671 33.3251 62.6681 21.6131 59.6901 16.5599C59.2448 15.7698 58.6015 15.1159 57.8267 14.6659C57.0519 14.216 56.1738 13.9863 55.2832 14.0006C52.0758 14.0006 49.3771 16.7669 47.0056 22.46C45.5927 25.8615 44.541 29.7468 43.8254 32.8691C41.947 32.5289 40.0249 32.5289 38.1465 32.8691C37.4355 29.7468 36.3838 25.8615 34.9663 22.46C32.6039 16.7669 29.8962 14.0006 26.6887 14.0006C25.7956 13.9873 24.9153 14.2194 24.1395 14.6728C23.3636 15.1262 22.7206 15.7842 22.2773 16.5785C19.2993 21.6225 21.9048 33.3344 26.2208 42.152C25.5101 43.6788 25.0306 45.3074 24.7988 46.982C22.5167 49.1805 21.1807 52.2175 21.0849 55.4249C20.989 58.6322 22.1411 61.7472 24.2877 64.0846C26.4342 66.4219 29.3994 67.7902 32.531 67.8883C35.6625 67.9865 38.7039 66.8066 40.986 64.608L36.1884 60.1015C35.8179 59.7855 35.5851 59.3318 35.5412 58.8401C35.4973 58.3484 35.646 57.8589 35.9544 57.4794C36.2629 57.1 36.7059 56.8615 37.186 56.8166C37.6661 56.7716 38.144 56.9239 38.5145 57.2398L40.986 59.3453L43.4574 57.2398C43.8279 56.9239 44.3058 56.7716 44.7859 56.8166C45.266 56.8615 45.709 57.1 46.0175 57.4794C46.3259 57.8589 46.4746 58.3484 46.4307 58.8401C46.3868 59.3318 46.154 59.7855 45.7835 60.1015L40.986 64.608C42.1111 65.7199 43.4405 66.592 44.8971 67.1736C46.3538 67.7553 47.9087 68.035 49.4717 67.9965C51.0347 67.958 52.5747 67.6021 54.0024 66.9495C55.43 66.2968 56.717 65.3603 57.7887 64.1944C58.8603 63.0284 59.6953 61.6562 60.2452 60.1572C60.7951 58.6582 61.049 57.0623 60.9922 55.4621C60.9354 53.8619 60.5689 52.2891 59.9141 50.835C59.2593 49.3809 58.3292 48.0744 57.1777 46.9913ZM28.556 38.4924C27.0432 35.0499 25.9095 31.4455 25.1759 27.746C24.3831 23.5279 24.4603 20.0683 25.3871 18.5049C25.5048 18.2578 25.6911 18.0518 25.9227 17.9127C26.1542 17.7736 26.4207 17.7077 26.6887 17.7231C28.1902 17.7231 29.987 19.9799 31.6226 23.9164C32.9696 27.1597 33.9736 30.9241 34.6506 33.9207C32.2934 34.932 30.2017 36.4974 28.5446 38.49L28.556 38.4924ZM34.6256 53.0869C34.0865 53.0869 33.5594 52.9231 33.1112 52.6164C32.6629 52.3096 32.3135 51.8736 32.1072 51.3634C31.9009 50.8533 31.8469 50.2919 31.9521 49.7503C32.0573 49.2088 32.3169 48.7113 32.6981 48.3209C33.0793 47.9304 33.565 47.6645 34.0938 47.5568C34.6226 47.4491 35.1706 47.5043 35.6687 47.7157C36.1668 47.927 36.5925 48.2848 36.8921 48.7439C37.1916 49.2031 37.3515 49.7428 37.3515 50.295C37.3515 51.0355 37.0643 51.7456 36.5531 52.2692C36.0419 52.7927 35.3485 53.0869 34.6256 53.0869ZM47.3464 53.0869C46.8072 53.0869 46.2802 52.9231 45.8319 52.6164C45.3837 52.3096 45.0343 51.8736 44.828 51.3634C44.6217 50.8533 44.5677 50.2919 44.6729 49.7503C44.778 49.2088 45.0376 48.7113 45.4189 48.3209C45.8001 47.9304 46.2858 47.6645 46.8146 47.5568C47.3433 47.4491 47.8914 47.5043 48.3895 47.7157C48.8876 47.927 49.3133 48.2848 49.6128 48.7439C49.9124 49.2031 50.0722 49.7428 50.0722 50.295C50.0722 51.0355 49.785 51.7456 49.2738 52.2692C48.7626 52.7927 48.0693 53.0869 47.3464 53.0869ZM52.0144 36.9941C50.6333 35.7027 49.0458 34.6639 47.3214 33.923C48.0028 30.9241 49.0023 27.1597 50.3494 23.9188C51.9849 19.9799 53.7817 17.7231 55.2832 17.7231C55.5512 17.7077 55.8177 17.7736 56.0493 17.9127C56.2808 18.0518 56.4671 18.2578 56.5848 18.5049C57.5116 20.073 57.5889 23.5279 56.7961 27.746C56.0661 31.4451 54.9362 35.0494 53.4273 38.4924C52.9867 37.9638 52.5149 37.4634 52.0144 36.9941Z" fill="white"/>
</svg>
